<?xml version="1.0" encoding="UTF-8" standalone="no"?>
<svg
   width="640.53064pt"
   height="250pt"
   viewBox="0 0 640.53062 250"
   version="1.1"
   id="svg251"
   sodipodi:docname="utvecklingsstadier.svg"
   inkscape:version="1.4 (e7c3feb100, 2024-10-09)"
   xmlns:inkscape="http://www.inkscape.org/namespaces/inkscape"
   xmlns:sodipodi="http://sodipodi.sourceforge.net/DTD/sodipodi-0.dtd"
   xmlns:xlink="http://www.w3.org/1999/xlink"
   xmlns="http://www.w3.org/2000/svg"
   xmlns:svg="http://www.w3.org/2000/svg"
   xmlns:rdf="http://www.w3.org/1999/02/22-rdf-syntax-ns#"
   xmlns:cc="http://creativecommons.org/ns#"
   xmlns:dc="http://purl.org/dc/elements/1.1/">
  <sodipodi:namedview
     id="namedview251"
     pagecolor="#ffffff"
     bordercolor="#000000"
     borderopacity="0.25"
     inkscape:showpageshadow="2"
     inkscape:pageopacity="0.0"
     inkscape:pagecheckerboard="0"
     inkscape:deskcolor="#d1d1d1"
     inkscape:document-units="pt"
     inkscape:zoom="1.3433689"
     inkscape:cx="452.96568"
     inkscape:cy="158.5566"
     inkscape:window-width="2520"
     inkscape:window-height="1048"
     inkscape:window-x="0"
     inkscape:window-y="0"
     inkscape:window-maximized="1"
     inkscape:current-layer="svg251" />
  <metadata
     id="metadata1">
    <rdf:RDF>
      <cc:Work>
        <dc:type
           rdf:resource="http://purl.org/dc/dcmitype/StillImage" />
        <dc:date>2025-04-10T19:25:06.765839</dc:date>
        <dc:format>image/svg+xml</dc:format>
        <dc:creator>
          <cc:Agent>
            <dc:title>Matplotlib v3.6.3, https://matplotlib.org/</dc:title>
          </cc:Agent>
        </dc:creator>
      </cc:Work>
    </rdf:RDF>
  </metadata>
  <defs
     id="defs1">
    <style
       type="text/css"
       id="style1">*{stroke-linejoin: round; stroke-linecap: butt}</style>
  </defs>
  <path
     d="M 0,236.16 H 640.53062 V 0 H 0 Z"
     style="fill:#ffffff"
     id="path1" />
  <g
     id="patch_2">
    <path
       d="m 97.699375,206.784 c 11.838665,0 23.194045,-9.34641 31.565245,-25.9808 8.3712,-16.63439 13.07475,-39.19862 13.07475,-62.7232 0,-23.524576 -4.70355,-46.088813 -13.07475,-62.7232 C 120.89342,38.722413 109.53804,29.376 97.699375,29.376 85.860709,29.376 74.50533,38.722413 66.134128,55.3568 57.762927,71.991187 53.059375,94.555424 53.059375,118.08 c 0,23.52458 4.703552,46.08881 13.074753,62.7232 8.371202,16.63439 19.726581,25.9808 31.565247,25.9808 z"
       clip-path="url(#p3defbe3a60)"
       style="fill:#8e44ad;stroke:#000000;stroke-width:1.2;stroke-linejoin:miter"
       id="path2" />
  </g>
  <g
     id="patch_3">
    <path
       d="m 209.29937,206.784 c 11.83867,0 23.19405,-9.34641 31.56525,-25.9808 8.3712,-16.63439 13.07475,-39.19862 13.07475,-62.7232 0,-23.524576 -4.70355,-46.088813 -13.07475,-62.7232 -8.3712,-16.634387 -19.72658,-25.9808 -31.56525,-25.9808 -11.83866,0 -23.19404,9.346413 -31.56524,25.9808 -8.3712,16.634387 -13.07476,39.198624 -13.07476,62.7232 0,23.52458 4.70356,46.08881 13.07476,62.7232 8.3712,16.63439 19.72658,25.9808 31.56524,25.9808 z"
       clip-path="url(#p3defbe3a60)"
       style="fill:#2980b9;stroke:#000000;stroke-width:1.2;stroke-linejoin:miter"
       id="path3" />
  </g>
  <g
     id="patch_4">
    <path
       d="m 320.89938,206.784 c 11.83866,0 23.19404,-9.34641 31.56524,-25.9808 8.3712,-16.63439 13.07475,-39.19862 13.07475,-62.7232 0,-23.524576 -4.70355,-46.088813 -13.07475,-62.7232 -8.3712,-16.634387 -19.72658,-25.9808 -31.56524,-25.9808 -11.83867,0 -23.19405,9.346413 -31.56525,25.9808 -8.3712,16.634387 -13.07476,39.198624 -13.07476,62.7232 0,23.52458 4.70356,46.08881 13.07476,62.7232 8.3712,16.63439 19.72658,25.9808 31.56525,25.9808 z"
       clip-path="url(#p3defbe3a60)"
       style="fill:#27ae60;stroke:#000000;stroke-width:1.2;stroke-linejoin:miter"
       id="path4" />
  </g>
  <g
     id="patch_5">
    <path
       d="m 432.49937,206.784 c 11.83867,0 23.19405,-9.34641 31.56525,-25.9808 8.3712,-16.63439 13.07475,-39.19862 13.07475,-62.7232 0,-23.524576 -4.70355,-46.088813 -13.07475,-62.7232 -8.3712,-16.634387 -19.72658,-25.9808 -31.56525,-25.9808 -11.83866,0 -23.19404,9.346413 -31.56524,25.9808 -8.3712,16.634387 -13.07476,39.198624 -13.07476,62.7232 0,23.52458 4.70356,46.08881 13.07476,62.7232 8.3712,16.63439 19.72658,25.9808 31.56524,25.9808 z"
       clip-path="url(#p3defbe3a60)"
       style="fill:#f39c12;stroke:#000000;stroke-width:1.2;stroke-linejoin:miter"
       id="path5" />
  </g>
  <g
     id="patch_6">
    <path
       d="m 544.09937,206.784 c 11.83867,0 23.19405,-9.34641 31.56525,-25.9808 8.3712,-16.63439 13.07475,-39.19862 13.07475,-62.7232 0,-23.524576 -4.70355,-46.088813 -13.07475,-62.7232 -8.3712,-16.634387 -19.72658,-25.9808 -31.56525,-25.9808 -11.83866,0 -23.19404,9.346413 -31.56524,25.9808 -8.3712,16.634387 -13.07475,39.198624 -13.07475,62.7232 0,23.52458 4.70355,46.08881 13.07475,62.7232 8.3712,16.63439 19.72658,25.9808 31.56524,25.9808 z"
       clip-path="url(#p3defbe3a60)"
       style="fill:#e74c3c;stroke:#000000;stroke-width:1.2;stroke-linejoin:miter"
       id="path6" />
  </g>
  <g
     id="text_1">
    <!-- Magisk -->
    <g
       style="fill:#ffffff"
       transform="matrix(0.1,0,0,-0.1,77.755625,120.80031)"
       id="g11">
      <defs
         id="defs6">
        <path
           id="DejaVuSans-Bold-4d"
           d="M 588,4666 H 2119 L 3181,2169 4250,4666 H 5778 V 0 H 4641 V 3413 L 3566,897 H 2803 L 1728,3413 V 0 H 588 Z"
           transform="scale(0.015625)" />
        <path
           id="DejaVuSans-Bold-61"
           d="m 2106,1575 q -350,0 -527,-119 -176,-118 -176,-350 0,-212 142,-333 143,-120 396,-120 315,0 531,226 216,227 216,568 v 128 z m 1710,422 V 0 H 2688 V 519 Q 2463,200 2181,54 1900,-91 1497,-91 953,-91 614,226 275,544 275,1050 q 0,616 423,903 424,288 1330,288 h 660 v 87 q 0,266 -210,389 -209,124 -653,124 -359,0 -669,-72 -309,-72 -575,-216 v 853 q 360,88 722,133 363,45 725,45 947,0 1367,-373 421,-373 421,-1214 z"
           transform="scale(0.015625)" />
        <path
           id="DejaVuSans-Bold-67"
           d="M 2919,594 Q 2688,288 2409,144 2131,0 1766,0 1125,0 706,504 288,1009 288,1791 q 0,784 418,1285 419,502 1060,502 365,0 643,-144 279,-143 510,-453 v 519 H 4044 V 353 q 0,-844 -533,-1289 -533,-445 -1545,-445 -328,0 -635,50 -306,50 -615,153 v 872 q 293,-169 574,-252 282,-83 566,-83 550,0 806,241 257,241 257,753 z m -738,2178 q -347,0 -541,-257 -193,-256 -193,-724 0,-482 187,-730 188,-248 547,-248 350,0 544,256 194,256 194,722 0,468 -194,724 -194,257 -544,257 z"
           transform="scale(0.015625)" />
        <path
           id="DejaVuSans-Bold-69"
           d="M 538,3500 H 1656 V 0 H 538 Z m 0,1363 H 1656 V 3950 H 538 Z"
           transform="scale(0.015625)" />
        <path
           id="DejaVuSans-Bold-73"
           d="m 3272,3391 v -850 q -359,150 -694,225 -334,75 -631,75 -319,0 -474,-80 -154,-80 -154,-245 0,-135 117,-207 117,-71 420,-106 l 197,-28 q 860,-109 1156,-359 297,-250 297,-785 0,-559 -413,-841 -412,-281 -1230,-281 -347,0 -718,55 -370,55 -761,164 v 850 q 335,-162 686,-244 352,-81 714,-81 329,0 494,90 166,91 166,270 0,150 -114,223 -114,73 -455,114 l -197,25 q -747,94 -1047,347 -300,253 -300,769 0,556 381,824 382,269 1169,269 310,0 650,-47 341,-46 741,-146 z"
           transform="scale(0.015625)" />
        <path
           id="DejaVuSans-Bold-6b"
           d="M 538,4863 H 1656 V 2216 L 2944,3500 H 4244 L 2534,1894 4378,0 H 3022 L 1656,1459 V 0 H 538 Z"
           transform="scale(0.015625)" />
      </defs>
      <use
         xlink:href="#DejaVuSans-Bold-4d"
         id="use6" />
      <use
         xlink:href="#DejaVuSans-Bold-61"
         x="99.511719"
         id="use7" />
      <use
         xlink:href="#DejaVuSans-Bold-67"
         x="166.99219"
         id="use8" />
      <use
         xlink:href="#DejaVuSans-Bold-69"
         x="238.57422"
         id="use9" />
      <use
         xlink:href="#DejaVuSans-Bold-73"
         x="272.85156"
         id="use10" />
      <use
         xlink:href="#DejaVuSans-Bold-6b"
         x="332.37305"
         id="use11" />
    </g>
  </g>
  <g
     id="text_2">
    <!-- Världen är fylld av andar och direkt påverkan -->
    <g
       style="fill:#333333"
       transform="matrix(0.08,0,0,-0.08,7.2,216.20825)"
       id="g56">
      <defs
         id="defs11">
        <path
           id="DejaVuSans-56"
           d="M 1831,0 50,4666 H 709 L 2188,738 3669,4666 h 656 L 2547,0 Z"
           transform="scale(0.015625)" />
        <path
           id="DejaVuSans-e4"
           d="m 2194,1759 q -697,0 -966,-159 -269,-159 -269,-544 0,-306 202,-486 202,-179 548,-179 479,0 768,339 289,339 289,901 v 128 z m 1147,238 V 0 H 2766 V 531 Q 2569,213 2275,61 1981,-91 1556,-91 q -537,0 -855,302 -317,302 -317,808 0,590 395,890 396,300 1180,300 h 807 v 57 q 0,397 -261,614 -261,217 -733,217 -300,0 -585,-72 -284,-72 -546,-216 v 532 q 315,122 612,182 297,61 578,61 760,0 1135,-394 375,-393 375,-1193 z M 2150,4850 h 634 v -631 h -634 z m -1222,0 h 634 V 4219 H 928 Z"
           transform="scale(0.015625)" />
        <path
           id="DejaVuSans-72"
           d="m 2631,2963 q -97,56 -211,82 -114,27 -251,27 -488,0 -749,-317 -261,-317 -261,-911 V 0 H 581 v 3500 h 578 v -544 q 182,319 472,473 291,155 707,155 59,0 131,-8 72,-7 159,-23 z"
           transform="scale(0.015625)" />
        <path
           id="DejaVuSans-6c"
           d="m 603,4863 h 575 V 0 H 603 Z"
           transform="scale(0.015625)" />
        <path
           id="DejaVuSans-64"
           d="m 2906,2969 v 1894 h 575 V 0 H 2906 V 525 Q 2725,213 2448,61 2172,-91 1784,-91 1150,-91 751,415 353,922 353,1747 q 0,825 398,1331 399,506 1033,506 388,0 664,-152 277,-151 458,-463 z M 947,1747 q 0,-634 261,-995 261,-361 717,-361 456,0 718,361 263,361 263,995 0,634 -263,995 -262,361 -718,361 -456,0 -717,-361 -261,-361 -261,-995 z"
           transform="scale(0.015625)" />
        <path
           id="DejaVuSans-65"
           d="M 3597,1894 V 1613 H 953 q 38,-594 358,-905 320,-311 892,-311 331,0 642,81 311,81 618,244 V 178 Q 3153,47 2828,-22 2503,-91 2169,-91 1331,-91 842,396 353,884 353,1716 q 0,859 464,1363 464,505 1252,505 706,0 1117,-455 411,-454 411,-1235 z m -575,169 q -6,471 -264,752 -258,282 -683,282 -481,0 -770,-272 -289,-272 -333,-766 z"
           transform="scale(0.015625)" />
        <path
           id="DejaVuSans-6e"
           d="M 3513,2113 V 0 h -575 v 2094 q 0,497 -194,743 -194,247 -581,247 -466,0 -735,-297 -269,-296 -269,-809 V 0 H 581 v 3500 h 578 v -544 q 207,316 486,472 280,156 646,156 603,0 912,-373 310,-373 310,-1098 z"
           transform="scale(0.015625)" />
        <path
           id="DejaVuSans-20"
           transform="scale(0.015625)"
           d="" />
        <path
           id="DejaVuSans-66"
           d="m 2375,4863 v -479 h -550 q -309,0 -430,-125 -120,-125 -120,-450 v -309 h 947 V 3053 H 1275 V 0 H 697 V 3053 H 147 v 447 h 550 v 244 q 0,584 272,851 272,268 862,268 z"
           transform="scale(0.015625)" />
        <path
           id="DejaVuSans-79"
           d="m 2059,-325 q -243,-625 -475,-815 -231,-191 -618,-191 H 506 v 481 h 338 q 237,0 368,113 132,112 291,531 L 1606,56 191,3500 H 800 L 1894,763 2988,3500 h 609 z"
           transform="scale(0.015625)" />
        <path
           id="DejaVuSans-61"
           d="m 2194,1759 q -697,0 -966,-159 -269,-159 -269,-544 0,-306 202,-486 202,-179 548,-179 479,0 768,339 289,339 289,901 v 128 z m 1147,238 V 0 H 2766 V 531 Q 2569,213 2275,61 1981,-91 1556,-91 q -537,0 -855,302 -317,302 -317,808 0,590 395,890 396,300 1180,300 h 807 v 57 q 0,397 -261,614 -261,217 -733,217 -300,0 -585,-72 -284,-72 -546,-216 v 532 q 315,122 612,182 297,61 578,61 760,0 1135,-394 375,-393 375,-1193 z"
           transform="scale(0.015625)" />
        <path
           id="DejaVuSans-76"
           d="M 191,3500 H 800 L 1894,563 2988,3500 h 609 L 2284,0 h -781 z"
           transform="scale(0.015625)" />
        <path
           id="DejaVuSans-6f"
           d="m 1959,3097 q -462,0 -731,-361 -269,-361 -269,-989 0,-628 267,-989 268,-361 733,-361 460,0 728,362 269,363 269,988 0,622 -269,986 -268,364 -728,364 z m 0,487 q 750,0 1178,-488 429,-487 429,-1349 Q 3566,888 3137,398 2709,-91 1959,-91 1206,-91 779,398 353,888 353,1747 q 0,862 426,1349 427,488 1180,488 z"
           transform="scale(0.015625)" />
        <path
           id="DejaVuSans-63"
           d="m 3122,3366 v -538 q -244,135 -489,202 -245,67 -495,67 -560,0 -870,-355 -309,-354 -309,-995 0,-641 309,-996 310,-354 870,-354 250,0 495,67 245,67 489,202 V 134 Q 2881,22 2623,-34 2366,-91 2075,-91 1284,-91 818,406 353,903 353,1747 q 0,856 470,1346 471,491 1290,491 265,0 518,-55 253,-54 491,-163 z"
           transform="scale(0.015625)" />
        <path
           id="DejaVuSans-68"
           d="M 3513,2113 V 0 h -575 v 2094 q 0,497 -194,743 -194,247 -581,247 -466,0 -735,-297 -269,-296 -269,-809 V 0 H 581 v 4863 h 578 V 2956 q 207,316 486,472 280,156 646,156 603,0 912,-373 310,-373 310,-1098 z"
           transform="scale(0.015625)" />
        <path
           id="DejaVuSans-69"
           d="m 603,3500 h 575 V 0 H 603 Z m 0,1363 h 575 V 4134 H 603 Z"
           transform="scale(0.015625)" />
        <path
           id="DejaVuSans-6b"
           d="m 581,4863 h 578 V 1991 l 1716,1509 h 734 L 1753,1863 3688,0 H 2938 L 1159,1709 V 0 H 581 Z"
           transform="scale(0.015625)" />
        <path
           id="DejaVuSans-74"
           d="M 1172,4494 V 3500 H 2356 V 3053 H 1172 V 1153 q 0,-428 117,-550 117,-122 477,-122 h 590 V 0 H 1766 Q 1100,0 847,248 594,497 594,1153 V 3053 H 172 v 447 h 422 v 994 z"
           transform="scale(0.015625)" />
        <path
           id="DejaVuSans-70"
           d="M 1159,525 V -1331 H 581 v 4831 h 578 v -531 q 182,312 458,463 277,152 661,152 638,0 1036,-506 399,-506 399,-1331 0,-825 -399,-1332 -398,-506 -1036,-506 -384,0 -661,152 -276,152 -458,464 z m 1957,1222 q 0,634 -261,995 -261,361 -717,361 -457,0 -718,-361 -261,-361 -261,-995 0,-634 261,-995 261,-361 718,-361 456,0 717,361 261,361 261,995 z"
           transform="scale(0.015625)" />
        <path
           id="DejaVuSans-e5"
           d="m 2194,1759 q -697,0 -966,-159 -269,-159 -269,-544 0,-306 202,-486 202,-179 548,-179 479,0 768,339 289,339 289,901 v 128 z m 1147,238 V 0 H 2766 V 531 Q 2569,213 2275,61 1981,-91 1556,-91 q -537,0 -855,302 -317,302 -317,808 0,590 395,890 396,300 1180,300 h 807 v 57 q 0,397 -261,614 -261,217 -733,217 -300,0 -585,-72 -284,-72 -546,-216 v 532 q 315,122 612,182 297,61 578,61 760,0 1135,-394 375,-393 375,-1193 z M 2331,4763 q 0,196 -138,333 -137,138 -337,138 -203,0 -339,-136 -136,-135 -136,-335 0,-204 136,-340 136,-135 339,-135 200,0 337,137 138,138 138,338 z m 381,0 q 0,-360 -249,-610 -248,-250 -607,-250 -359,0 -608,250 -248,250 -248,610 0,359 248,607 249,249 608,249 359,0 607,-249 249,-248 249,-607 z"
           transform="scale(0.015625)" />
      </defs>
      <use
         xlink:href="#DejaVuSans-56"
         id="use12" />
      <use
         xlink:href="#DejaVuSans-e4"
         x="60.658203"
         id="use13" />
      <use
         xlink:href="#DejaVuSans-72"
         x="121.9375"
         id="use14" />
      <use
         xlink:href="#DejaVuSans-6c"
         x="163.05078"
         id="use15" />
      <use
         xlink:href="#DejaVuSans-64"
         x="190.83398"
         id="use16" />
      <use
         xlink:href="#DejaVuSans-65"
         x="254.31055"
         id="use17" />
      <use
         xlink:href="#DejaVuSans-6e"
         x="315.83398"
         id="use18" />
      <use
         xlink:href="#DejaVuSans-20"
         x="379.21289"
         id="use19" />
      <use
         xlink:href="#DejaVuSans-e4"
         x="411"
         id="use20" />
      <use
         xlink:href="#DejaVuSans-72"
         x="472.2793"
         id="use21" />
      <use
         xlink:href="#DejaVuSans-20"
         x="513.39258"
         id="use22" />
      <use
         xlink:href="#DejaVuSans-66"
         x="545.17969"
         id="use23" />
      <use
         xlink:href="#DejaVuSans-79"
         x="578.63477"
         id="use24" />
      <use
         xlink:href="#DejaVuSans-6c"
         x="637.81445"
         id="use25" />
      <use
         xlink:href="#DejaVuSans-6c"
         x="665.59766"
         id="use26" />
      <use
         xlink:href="#DejaVuSans-64"
         x="693.38086"
         id="use27" />
      <use
         xlink:href="#DejaVuSans-20"
         x="756.85742"
         id="use28" />
      <use
         xlink:href="#DejaVuSans-61"
         x="788.64453"
         id="use29" />
      <use
         xlink:href="#DejaVuSans-76"
         x="849.92383"
         id="use30" />
      <use
         xlink:href="#DejaVuSans-20"
         x="909.10352"
         id="use31" />
      <use
         xlink:href="#DejaVuSans-61"
         x="940.89062"
         id="use32" />
      <use
         xlink:href="#DejaVuSans-6e"
         x="1002.1699"
         id="use33" />
      <use
         xlink:href="#DejaVuSans-64"
         x="1065.5488"
         id="use34" />
      <use
         xlink:href="#DejaVuSans-61"
         x="1129.0254"
         id="use35" />
      <use
         xlink:href="#DejaVuSans-72"
         x="1190.3047"
         id="use36" />
      <use
         xlink:href="#DejaVuSans-20"
         x="1231.418"
         id="use37" />
      <use
         xlink:href="#DejaVuSans-6f"
         x="1263.2051"
         id="use38" />
      <use
         xlink:href="#DejaVuSans-63"
         x="1324.3867"
         id="use39" />
      <use
         xlink:href="#DejaVuSans-68"
         x="1379.3672"
         id="use40" />
      <use
         xlink:href="#DejaVuSans-20"
         x="1442.7461"
         id="use41" />
      <use
         xlink:href="#DejaVuSans-64"
         x="1474.5332"
         id="use42" />
      <use
         xlink:href="#DejaVuSans-69"
         x="1538.0098"
         id="use43" />
      <use
         xlink:href="#DejaVuSans-72"
         x="1565.793"
         id="use44" />
      <use
         xlink:href="#DejaVuSans-65"
         x="1604.6562"
         id="use45" />
      <use
         xlink:href="#DejaVuSans-6b"
         x="1666.1797"
         id="use46" />
      <use
         xlink:href="#DejaVuSans-74"
         x="1724.0898"
         id="use47" />
      <use
         xlink:href="#DejaVuSans-20"
         x="1763.2988"
         id="use48" />
      <use
         xlink:href="#DejaVuSans-70"
         x="1795.0859"
         id="use49" />
      <use
         xlink:href="#DejaVuSans-e5"
         x="1858.5625"
         id="use50" />
      <use
         xlink:href="#DejaVuSans-76"
         x="1919.8418"
         id="use51" />
      <use
         xlink:href="#DejaVuSans-65"
         x="1979.0215"
         id="use52" />
      <use
         xlink:href="#DejaVuSans-72"
         x="2040.5449"
         id="use53" />
      <use
         xlink:href="#DejaVuSans-6b"
         x="2081.6582"
         id="use54" />
      <use
         xlink:href="#DejaVuSans-61"
         x="2137.8184"
         id="use55" />
      <use
         xlink:href="#DejaVuSans-6e"
         x="2199.0977"
         id="use56" />
    </g>
  </g>
  <g
     id="text_3">
    <!-- Mytisk -->
    <g
       style="fill:#ffffff"
       transform="matrix(0.1,0,0,-0.1,190.65953,120.80031)"
       id="g62">
      <defs
         id="defs56">
        <path
           id="DejaVuSans-Bold-79"
           d="m 78,3500 h 1119 l 941,-2375 800,2375 H 4056 L 2584,-331 q -221,-585 -517,-817 -295,-233 -779,-233 H 641 v 734 h 350 q 284,0 413,91 130,90 202,325 l 32,97 z"
           transform="scale(0.015625)" />
        <path
           id="DejaVuSans-Bold-74"
           d="M 1759,4494 V 3500 H 2913 V 2700 H 1759 V 1216 q 0,-244 97,-330 97,-86 385,-86 h 575 V 0 H 1856 Q 1194,0 917,276 641,553 641,1216 V 2700 H 84 v 800 h 557 v 994 z"
           transform="scale(0.015625)" />
      </defs>
      <use
         xlink:href="#DejaVuSans-Bold-4d"
         id="use57" />
      <use
         xlink:href="#DejaVuSans-Bold-79"
         x="99.511719"
         id="use58" />
      <use
         xlink:href="#DejaVuSans-Bold-74"
         x="164.69727"
         id="use59" />
      <use
         xlink:href="#DejaVuSans-Bold-69"
         x="212.5"
         id="use60" />
      <use
         xlink:href="#DejaVuSans-Bold-73"
         x="246.77734"
         id="use61" />
      <use
         xlink:href="#DejaVuSans-Bold-6b"
         x="306.29883"
         id="use62" />
    </g>
  </g>
  <g
     id="text_4"
     transform="translate(0,10.5)">
    <!-- Verkligheten ordnas genom absoluta berättelser -->
    <g
       style="fill:#333333"
       transform="matrix(0.08,0,0,-0.08,112.35125,216.20825)"
       id="g108">
      <defs
         id="defs62">
        <path
           id="DejaVuSans-67"
           d="m 2906,1791 q 0,625 -258,968 -257,344 -723,344 -462,0 -720,-344 -258,-343 -258,-968 0,-622 258,-966 258,-344 720,-344 466,0 723,344 258,344 258,966 z M 3481,434 q 0,-893 -397,-1329 -396,-436 -1215,-436 -303,0 -572,45 -269,45 -522,139 v 559 q 253,-137 500,-202 247,-66 503,-66 566,0 847,295 281,295 281,892 V 616 Q 2728,306 2450,153 2172,0 1784,0 1141,0 747,490 353,981 353,1791 q 0,812 394,1302 394,491 1037,491 388,0 666,-153 278,-153 456,-462 v 531 h 575 z"
           transform="scale(0.015625)" />
        <path
           id="DejaVuSans-73"
           d="m 2834,3397 v -544 q -243,125 -506,187 -262,63 -544,63 -428,0 -642,-131 -214,-131 -214,-394 0,-200 153,-314 153,-114 616,-217 l 197,-44 q 612,-131 870,-370 258,-239 258,-667 0,-488 -386,-773 Q 2250,-91 1575,-91 1294,-91 989,-36 684,19 347,128 v 594 q 319,-166 628,-249 309,-82 613,-82 406,0 624,139 219,139 219,392 0,234 -158,359 -157,125 -692,241 l -200,47 q -534,112 -772,345 -237,233 -237,639 0,494 350,762 350,269 994,269 318,0 599,-47 282,-46 519,-140 z"
           transform="scale(0.015625)" />
        <path
           id="DejaVuSans-6d"
           d="m 3328,2828 q 216,388 516,572 300,184 706,184 547,0 844,-383 297,-382 297,-1088 V 0 h -578 v 2094 q 0,503 -179,746 -178,244 -543,244 -447,0 -707,-297 -259,-296 -259,-809 V 0 h -578 v 2094 q 0,506 -178,748 -178,242 -550,242 -441,0 -701,-298 -259,-298 -259,-808 V 0 H 581 v 3500 h 578 v -544 q 197,322 472,475 275,153 653,153 382,0 649,-194 267,-193 395,-562 z"
           transform="scale(0.015625)" />
        <path
           id="DejaVuSans-62"
           d="m 3116,1747 q 0,634 -261,995 -261,361 -717,361 -457,0 -718,-361 -261,-361 -261,-995 0,-634 261,-995 261,-361 718,-361 456,0 717,361 261,361 261,995 z M 1159,2969 q 182,312 458,463 277,152 661,152 638,0 1036,-506 399,-506 399,-1331 Q 3713,922 3314,415 2916,-91 2278,-91 1894,-91 1617,61 1341,213 1159,525 V 0 H 581 v 4863 h 578 z"
           transform="scale(0.015625)" />
        <path
           id="DejaVuSans-75"
           d="m 544,1381 v 2119 h 575 V 1403 q 0,-497 193,-746 194,-248 582,-248 465,0 735,297 271,297 271,810 v 1984 h 575 V 0 H 2900 V 538 Q 2691,219 2414,64 2138,-91 1772,-91 1169,-91 856,284 544,659 544,1381 Z m 1447,2203 z"
           transform="scale(0.015625)" />
      </defs>
      <use
         xlink:href="#DejaVuSans-56"
         id="use63" />
      <use
         xlink:href="#DejaVuSans-65"
         x="60.658203"
         id="use64" />
      <use
         xlink:href="#DejaVuSans-72"
         x="122.18164"
         id="use65" />
      <use
         xlink:href="#DejaVuSans-6b"
         x="163.29492"
         id="use66" />
      <use
         xlink:href="#DejaVuSans-6c"
         x="221.20508"
         id="use67" />
      <use
         xlink:href="#DejaVuSans-69"
         x="248.98828"
         id="use68" />
      <use
         xlink:href="#DejaVuSans-67"
         x="276.77148"
         id="use69" />
      <use
         xlink:href="#DejaVuSans-68"
         x="340.24805"
         id="use70" />
      <use
         xlink:href="#DejaVuSans-65"
         x="403.62695"
         id="use71" />
      <use
         xlink:href="#DejaVuSans-74"
         x="465.15039"
         id="use72" />
      <use
         xlink:href="#DejaVuSans-65"
         x="504.35938"
         id="use73" />
      <use
         xlink:href="#DejaVuSans-6e"
         x="565.88281"
         id="use74" />
      <use
         xlink:href="#DejaVuSans-20"
         x="629.26172"
         id="use75" />
      <use
         xlink:href="#DejaVuSans-6f"
         x="661.04883"
         id="use76" />
      <use
         xlink:href="#DejaVuSans-72"
         x="722.23047"
         id="use77" />
      <use
         xlink:href="#DejaVuSans-64"
         x="761.59375"
         id="use78" />
      <use
         xlink:href="#DejaVuSans-6e"
         x="825.07031"
         id="use79" />
      <use
         xlink:href="#DejaVuSans-61"
         x="888.44922"
         id="use80" />
      <use
         xlink:href="#DejaVuSans-73"
         x="949.72852"
         id="use81" />
      <use
         xlink:href="#DejaVuSans-20"
         x="1001.8281"
         id="use82" />
      <use
         xlink:href="#DejaVuSans-67"
         x="1033.6152"
         id="use83" />
      <use
         xlink:href="#DejaVuSans-65"
         x="1097.0918"
         id="use84" />
      <use
         xlink:href="#DejaVuSans-6e"
         x="1158.6152"
         id="use85" />
      <use
         xlink:href="#DejaVuSans-6f"
         x="1221.9941"
         id="use86" />
      <use
         xlink:href="#DejaVuSans-6d"
         x="1283.1758"
         id="use87" />
      <use
         xlink:href="#DejaVuSans-20"
         x="1380.5879"
         id="use88" />
      <use
         xlink:href="#DejaVuSans-61"
         x="1412.375"
         id="use89" />
      <use
         xlink:href="#DejaVuSans-62"
         x="1473.6543"
         id="use90" />
      <use
         xlink:href="#DejaVuSans-73"
         x="1537.1309"
         id="use91" />
      <use
         xlink:href="#DejaVuSans-6f"
         x="1589.2305"
         id="use92" />
      <use
         xlink:href="#DejaVuSans-6c"
         x="1650.4121"
         id="use93" />
      <use
         xlink:href="#DejaVuSans-75"
         x="1678.1953"
         id="use94" />
      <use
         xlink:href="#DejaVuSans-74"
         x="1741.5742"
         id="use95" />
      <use
         xlink:href="#DejaVuSans-61"
         x="1780.7832"
         id="use96" />
      <use
         xlink:href="#DejaVuSans-20"
         x="1842.0625"
         id="use97" />
      <use
         xlink:href="#DejaVuSans-62"
         x="1873.8496"
         id="use98" />
      <use
         xlink:href="#DejaVuSans-65"
         x="1937.3262"
         id="use99" />
      <use
         xlink:href="#DejaVuSans-72"
         x="1998.8496"
         id="use100" />
      <use
         xlink:href="#DejaVuSans-e4"
         x="2039.9629"
         id="use101" />
      <use
         xlink:href="#DejaVuSans-74"
         x="2101.2422"
         id="use102" />
      <use
         xlink:href="#DejaVuSans-74"
         x="2140.4512"
         id="use103" />
      <use
         xlink:href="#DejaVuSans-65"
         x="2179.6602"
         id="use104" />
      <use
         xlink:href="#DejaVuSans-6c"
         x="2241.1836"
         id="use105" />
      <use
         xlink:href="#DejaVuSans-73"
         x="2268.9668"
         id="use106" />
      <use
         xlink:href="#DejaVuSans-65"
         x="2321.0664"
         id="use107" />
      <use
         xlink:href="#DejaVuSans-72"
         x="2382.5898"
         id="use108" />
    </g>
  </g>
  <g
     id="text_5">
    <!-- Rationell -->
    <g
       style="fill:#ffffff"
       transform="matrix(0.1,0,0,-0.1,295.75719,120.83938)"
       id="g117">
      <defs
         id="defs108">
        <path
           id="DejaVuSans-Bold-52"
           d="m 2297,2597 q 378,0 542,140 164,141 164,463 0,319 -164,456 -164,138 -542,138 H 1791 V 2597 Z M 1791,1766 V 0 H 588 v 4666 h 1837 q 922,0 1351,-310 430,-309 430,-978 0,-462 -224,-759 -223,-297 -673,-438 247,-56 442,-255 196,-198 396,-601 L 4800,0 H 3519 l -569,1159 q -172,350 -349,478 -176,129 -470,129 z"
           transform="scale(0.015625)" />
        <path
           id="DejaVuSans-Bold-6f"
           d="m 2203,2784 q -372,0 -567,-267 -195,-267 -195,-770 0,-503 195,-771 195,-267 567,-267 366,0 559,267 194,268 194,771 0,503 -194,770 -193,267 -559,267 z m 0,800 q 903,0 1411,-488 508,-487 508,-1349 Q 4122,884 3614,396 3106,-91 2203,-91 1297,-91 786,396 275,884 275,1747 q 0,862 511,1349 511,488 1417,488 z"
           transform="scale(0.015625)" />
        <path
           id="DejaVuSans-Bold-6e"
           d="M 4056,2131 V 0 H 2931 v 347 1284 q 0,453 -20,625 -20,172 -70,253 -66,110 -179,171 -112,61 -256,61 -350,0 -550,-271 -200,-270 -200,-748 V 0 H 538 v 3500 h 1118 v -512 q 253,306 537,451 285,145 629,145 606,0 920,-372 314,-371 314,-1081 z"
           transform="scale(0.015625)" />
        <path
           id="DejaVuSans-Bold-65"
           d="M 4031,1759 V 1441 H 1416 q 40,-394 284,-591 244,-197 681,-197 353,0 723,105 371,105 762,317 V 213 Q 3469,63 3072,-14 2675,-91 2278,-91 1328,-91 801,392 275,875 275,1747 q 0,856 517,1346 517,491 1424,491 825,0 1320,-497 495,-496 495,-1328 z m -1150,372 q 0,319 -186,514 -186,196 -486,196 -325,0 -528,-183 -203,-183 -253,-527 z"
           transform="scale(0.015625)" />
        <path
           id="DejaVuSans-Bold-6c"
           d="M 538,4863 H 1656 V 0 H 538 Z"
           transform="scale(0.015625)" />
      </defs>
      <use
         xlink:href="#DejaVuSans-Bold-52"
         id="use109" />
      <use
         xlink:href="#DejaVuSans-Bold-61"
         x="77.001953"
         id="use110" />
      <use
         xlink:href="#DejaVuSans-Bold-74"
         x="144.48242"
         id="use111" />
      <use
         xlink:href="#DejaVuSans-Bold-69"
         x="192.28516"
         id="use112" />
      <use
         xlink:href="#DejaVuSans-Bold-6f"
         x="226.5625"
         id="use113" />
      <use
         xlink:href="#DejaVuSans-Bold-6e"
         x="295.26367"
         id="use114" />
      <use
         xlink:href="#DejaVuSans-Bold-65"
         x="366.45508"
         id="use115" />
      <use
         xlink:href="#DejaVuSans-Bold-6c"
         x="434.27734"
         id="use116" />
      <use
         xlink:href="#DejaVuSans-Bold-6c"
         x="468.55469"
         id="use117" />
    </g>
  </g>
  <g
     id="text_6">
    <!-- Fakta- och logikbaserad förståelse -->
    <g
       style="fill:#333333"
       transform="matrix(0.08,0,0,-0.08,252.32125,216.20825)"
       id="g151">
      <defs
         id="defs117">
        <path
           id="DejaVuSans-46"
           d="M 628,4666 H 3309 V 4134 H 1259 V 2759 H 3109 V 2228 H 1259 V 0 H 628 Z"
           transform="scale(0.015625)" />
        <path
           id="DejaVuSans-2d"
           d="M 313,2009 H 1997 V 1497 H 313 Z"
           transform="scale(0.015625)" />
        <path
           id="DejaVuSans-f6"
           d="m 1959,3097 q -462,0 -731,-361 -269,-361 -269,-989 0,-628 267,-989 268,-361 733,-361 460,0 728,362 269,363 269,988 0,622 -269,986 -268,364 -728,364 z m 0,487 q 750,0 1178,-488 429,-487 429,-1349 Q 3566,888 3137,398 2709,-91 1959,-91 1206,-91 779,398 353,888 353,1747 q 0,862 426,1349 427,488 1180,488 z m 295,1266 h 634 v -631 h -634 z m -1222,0 h 634 v -631 h -634 z"
           transform="scale(0.015625)" />
      </defs>
      <use
         xlink:href="#DejaVuSans-46"
         id="use118" />
      <use
         xlink:href="#DejaVuSans-61"
         x="48.394531"
         id="use119" />
      <use
         xlink:href="#DejaVuSans-6b"
         x="109.67383"
         id="use120" />
      <use
         xlink:href="#DejaVuSans-74"
         x="167.58398"
         id="use121" />
      <use
         xlink:href="#DejaVuSans-61"
         x="206.79297"
         id="use122" />
      <use
         xlink:href="#DejaVuSans-2d"
         x="268.07227"
         id="use123" />
      <use
         xlink:href="#DejaVuSans-20"
         x="304.15625"
         id="use124" />
      <use
         xlink:href="#DejaVuSans-6f"
         x="335.94336"
         id="use125" />
      <use
         xlink:href="#DejaVuSans-63"
         x="397.125"
         id="use126" />
      <use
         xlink:href="#DejaVuSans-68"
         x="452.10547"
         id="use127" />
      <use
         xlink:href="#DejaVuSans-20"
         x="515.48438"
         id="use128" />
      <use
         xlink:href="#DejaVuSans-6c"
         x="547.27148"
         id="use129" />
      <use
         xlink:href="#DejaVuSans-6f"
         x="575.05469"
         id="use130" />
      <use
         xlink:href="#DejaVuSans-67"
         x="636.23633"
         id="use131" />
      <use
         xlink:href="#DejaVuSans-69"
         x="699.71289"
         id="use132" />
      <use
         xlink:href="#DejaVuSans-6b"
         x="727.49609"
         id="use133" />
      <use
         xlink:href="#DejaVuSans-62"
         x="785.40625"
         id="use134" />
      <use
         xlink:href="#DejaVuSans-61"
         x="848.88281"
         id="use135" />
      <use
         xlink:href="#DejaVuSans-73"
         x="910.16211"
         id="use136" />
      <use
         xlink:href="#DejaVuSans-65"
         x="962.26172"
         id="use137" />
      <use
         xlink:href="#DejaVuSans-72"
         x="1023.7852"
         id="use138" />
      <use
         xlink:href="#DejaVuSans-61"
         x="1064.8984"
         id="use139" />
      <use
         xlink:href="#DejaVuSans-64"
         x="1126.1777"
         id="use140" />
      <use
         xlink:href="#DejaVuSans-20"
         x="1189.6543"
         id="use141" />
      <use
         xlink:href="#DejaVuSans-66"
         x="1221.4414"
         id="use142" />
      <use
         xlink:href="#DejaVuSans-f6"
         x="1256.6465"
         id="use143" />
      <use
         xlink:href="#DejaVuSans-72"
         x="1317.8281"
         id="use144" />
      <use
         xlink:href="#DejaVuSans-73"
         x="1358.9414"
         id="use145" />
      <use
         xlink:href="#DejaVuSans-74"
         x="1411.041"
         id="use146" />
      <use
         xlink:href="#DejaVuSans-e5"
         x="1450.25"
         id="use147" />
      <use
         xlink:href="#DejaVuSans-65"
         x="1511.5293"
         id="use148" />
      <use
         xlink:href="#DejaVuSans-6c"
         x="1573.0527"
         id="use149" />
      <use
         xlink:href="#DejaVuSans-73"
         x="1600.8359"
         id="use150" />
      <use
         xlink:href="#DejaVuSans-65"
         x="1652.9355"
         id="use151" />
    </g>
  </g>
  <g
     id="text_7">
    <!-- Pluralistisk -->
    <g
       style="fill:#ffffff"
       transform="matrix(0.1,0,0,-0.1,400.91266,120.83938)"
       id="g163">
      <defs
         id="defs151">
        <path
           id="DejaVuSans-Bold-50"
           d="m 588,4666 h 1996 q 891,0 1367,-396 477,-395 477,-1126 0,-735 -477,-1130 -476,-395 -1367,-395 H 1791 V 0 H 588 Z M 1791,3794 V 2491 h 665 q 350,0 541,170 191,170 191,483 0,312 -191,481 -191,169 -541,169 z"
           transform="scale(0.015625)" />
        <path
           id="DejaVuSans-Bold-75"
           d="m 500,1363 v 2137 h 1125 v -350 q 0,-284 -3,-714 -3,-430 -3,-573 0,-422 22,-608 22,-186 75,-271 68,-109 179,-169 111,-59 255,-59 350,0 550,269 200,269 200,747 V 3500 H 4019 V 0 H 2900 V 506 Q 2647,200 2364,54 2081,-91 1741,-91 1134,-91 817,281 500,653 500,1363 Z"
           transform="scale(0.015625)" />
        <path
           id="DejaVuSans-Bold-72"
           d="m 3138,2547 q -147,69 -293,101 -145,33 -292,33 -431,0 -664,-277 -233,-276 -233,-791 V 0 H 538 v 3500 h 1118 v -575 q 216,344 495,501 280,158 671,158 56,0 121,-5 66,-4 191,-20 z"
           transform="scale(0.015625)" />
      </defs>
      <use
         xlink:href="#DejaVuSans-Bold-50"
         id="use152" />
      <use
         xlink:href="#DejaVuSans-Bold-6c"
         x="73.291016"
         id="use153" />
      <use
         xlink:href="#DejaVuSans-Bold-75"
         x="107.56836"
         id="use154" />
      <use
         xlink:href="#DejaVuSans-Bold-72"
         x="178.75977"
         id="use155" />
      <use
         xlink:href="#DejaVuSans-Bold-61"
         x="228.07617"
         id="use156" />
      <use
         xlink:href="#DejaVuSans-Bold-6c"
         x="295.55664"
         id="use157" />
      <use
         xlink:href="#DejaVuSans-Bold-69"
         x="329.83398"
         id="use158" />
      <use
         xlink:href="#DejaVuSans-Bold-73"
         x="364.11133"
         id="use159" />
      <use
         xlink:href="#DejaVuSans-Bold-74"
         x="423.63281"
         id="use160" />
      <use
         xlink:href="#DejaVuSans-Bold-69"
         x="471.43555"
         id="use161" />
      <use
         xlink:href="#DejaVuSans-Bold-73"
         x="505.71289"
         id="use162" />
      <use
         xlink:href="#DejaVuSans-Bold-6b"
         x="565.23438"
         id="use163" />
    </g>
  </g>
  <g
     id="text_8"
     transform="translate(0,10.5)">
    <!-- Mångfald av perspektiv och kontext -->
    <g
       style="fill:#333333"
       transform="matrix(0.08,0,0,-0.08,360.78562,216.20825)"
       id="g197">
      <defs
         id="defs163">
        <path
           id="DejaVuSans-4d"
           d="m 628,4666 h 941 L 2759,1491 3956,4666 h 941 V 0 H 4281 V 4097 L 3078,897 H 2444 L 1241,4097 V 0 H 628 Z"
           transform="scale(0.015625)" />
        <path
           id="DejaVuSans-78"
           d="M 3513,3500 2247,1797 3578,0 H 2900 L 1881,1375 863,0 H 184 L 1544,1831 300,3500 h 678 l 928,-1247 928,1247 z"
           transform="scale(0.015625)" />
      </defs>
      <use
         xlink:href="#DejaVuSans-4d"
         id="use164" />
      <use
         xlink:href="#DejaVuSans-e5"
         x="86.279297"
         id="use165" />
      <use
         xlink:href="#DejaVuSans-6e"
         x="147.55859"
         id="use166" />
      <use
         xlink:href="#DejaVuSans-67"
         x="210.9375"
         id="use167" />
      <use
         xlink:href="#DejaVuSans-66"
         x="274.41406"
         id="use168" />
      <use
         xlink:href="#DejaVuSans-61"
         x="309.61914"
         id="use169" />
      <use
         xlink:href="#DejaVuSans-6c"
         x="370.89844"
         id="use170" />
      <use
         xlink:href="#DejaVuSans-64"
         x="398.68164"
         id="use171" />
      <use
         xlink:href="#DejaVuSans-20"
         x="462.1582"
         id="use172" />
      <use
         xlink:href="#DejaVuSans-61"
         x="493.94531"
         id="use173" />
      <use
         xlink:href="#DejaVuSans-76"
         x="555.22461"
         id="use174" />
      <use
         xlink:href="#DejaVuSans-20"
         x="614.4043"
         id="use175" />
      <use
         xlink:href="#DejaVuSans-70"
         x="646.19141"
         id="use176" />
      <use
         xlink:href="#DejaVuSans-65"
         x="709.66797"
         id="use177" />
      <use
         xlink:href="#DejaVuSans-72"
         x="771.19141"
         id="use178" />
      <use
         xlink:href="#DejaVuSans-73"
         x="812.30469"
         id="use179" />
      <use
         xlink:href="#DejaVuSans-70"
         x="864.4043"
         id="use180" />
      <use
         xlink:href="#DejaVuSans-65"
         x="927.88086"
         id="use181" />
      <use
         xlink:href="#DejaVuSans-6b"
         x="989.4043"
         id="use182" />
      <use
         xlink:href="#DejaVuSans-74"
         x="1047.3145"
         id="use183" />
      <use
         xlink:href="#DejaVuSans-69"
         x="1086.5234"
         id="use184" />
      <use
         xlink:href="#DejaVuSans-76"
         x="1114.3066"
         id="use185" />
      <use
         xlink:href="#DejaVuSans-20"
         x="1173.4863"
         id="use186" />
      <use
         xlink:href="#DejaVuSans-6f"
         x="1205.2734"
         id="use187" />
      <use
         xlink:href="#DejaVuSans-63"
         x="1266.4551"
         id="use188" />
      <use
         xlink:href="#DejaVuSans-68"
         x="1321.4355"
         id="use189" />
      <use
         xlink:href="#DejaVuSans-20"
         x="1384.8145"
         id="use190" />
      <use
         xlink:href="#DejaVuSans-6b"
         x="1416.6016"
         id="use191" />
      <use
         xlink:href="#DejaVuSans-6f"
         x="1470.8867"
         id="use192" />
      <use
         xlink:href="#DejaVuSans-6e"
         x="1532.0684"
         id="use193" />
      <use
         xlink:href="#DejaVuSans-74"
         x="1595.4473"
         id="use194" />
      <use
         xlink:href="#DejaVuSans-65"
         x="1634.6562"
         id="use195" />
      <use
         xlink:href="#DejaVuSans-78"
         x="1694.4297"
         id="use196" />
      <use
         xlink:href="#DejaVuSans-74"
         x="1753.6094"
         id="use197" />
    </g>
  </g>
  <g
     id="text_9">
    <!-- Integral -->
    <g
       style="fill:#ffffff"
       transform="matrix(0.1,0,0,-0.1,521.76578,120.80031)"
       id="g205">
      <defs
         id="defs197">
        <path
           id="DejaVuSans-Bold-49"
           d="M 588,4666 H 1791 V 0 H 588 Z"
           transform="scale(0.015625)" />
      </defs>
      <use
         xlink:href="#DejaVuSans-Bold-49"
         id="use198" />
      <use
         xlink:href="#DejaVuSans-Bold-6e"
         x="37.207031"
         id="use199" />
      <use
         xlink:href="#DejaVuSans-Bold-74"
         x="108.39844"
         id="use200" />
      <use
         xlink:href="#DejaVuSans-Bold-65"
         x="156.20117"
         id="use201" />
      <use
         xlink:href="#DejaVuSans-Bold-67"
         x="224.02344"
         id="use202" />
      <use
         xlink:href="#DejaVuSans-Bold-72"
         x="295.60547"
         id="use203" />
      <use
         xlink:href="#DejaVuSans-Bold-61"
         x="344.92188"
         id="use204" />
      <use
         xlink:href="#DejaVuSans-Bold-6c"
         x="412.40234"
         id="use205" />
    </g>
  </g>
  <g
     id="text_10">
    <!-- Inkluderar alla stadier, ser delvisa sanningar -->
    <g
       style="fill:#333333"
       transform="matrix(0.08,0,0,-0.08,454.86813,216.20825)"
       id="g251">
      <defs
         id="defs205">
        <path
           id="DejaVuSans-49"
           d="m 628,4666 h 631 V 0 H 628 Z"
           transform="scale(0.015625)" />
        <path
           id="DejaVuSans-2c"
           d="m 750,794 h 659 V 256 L 897,-744 H 494 L 750,256 Z"
           transform="scale(0.015625)" />
      </defs>
      <use
         xlink:href="#DejaVuSans-49"
         id="use206" />
      <use
         xlink:href="#DejaVuSans-6e"
         x="29.492188"
         id="use207" />
      <use
         xlink:href="#DejaVuSans-6b"
         x="92.871094"
         id="use208" />
      <use
         xlink:href="#DejaVuSans-6c"
         x="150.78125"
         id="use209" />
      <use
         xlink:href="#DejaVuSans-75"
         x="178.56445"
         id="use210" />
      <use
         xlink:href="#DejaVuSans-64"
         x="241.94336"
         id="use211" />
      <use
         xlink:href="#DejaVuSans-65"
         x="305.41992"
         id="use212" />
      <use
         xlink:href="#DejaVuSans-72"
         x="366.94336"
         id="use213" />
      <use
         xlink:href="#DejaVuSans-61"
         x="408.05664"
         id="use214" />
      <use
         xlink:href="#DejaVuSans-72"
         x="469.33594"
         id="use215" />
      <use
         xlink:href="#DejaVuSans-20"
         x="510.44922"
         id="use216" />
      <use
         xlink:href="#DejaVuSans-61"
         x="542.23633"
         id="use217" />
      <use
         xlink:href="#DejaVuSans-6c"
         x="603.51562"
         id="use218" />
      <use
         xlink:href="#DejaVuSans-6c"
         x="631.29883"
         id="use219" />
      <use
         xlink:href="#DejaVuSans-61"
         x="659.08203"
         id="use220" />
      <use
         xlink:href="#DejaVuSans-20"
         x="720.36133"
         id="use221" />
      <use
         xlink:href="#DejaVuSans-73"
         x="752.14844"
         id="use222" />
      <use
         xlink:href="#DejaVuSans-74"
         x="804.24805"
         id="use223" />
      <use
         xlink:href="#DejaVuSans-61"
         x="843.45703"
         id="use224" />
      <use
         xlink:href="#DejaVuSans-64"
         x="904.73633"
         id="use225" />
      <use
         xlink:href="#DejaVuSans-69"
         x="968.21289"
         id="use226" />
      <use
         xlink:href="#DejaVuSans-65"
         x="995.99609"
         id="use227" />
      <use
         xlink:href="#DejaVuSans-72"
         x="1057.5195"
         id="use228" />
      <use
         xlink:href="#DejaVuSans-2c"
         x="1098.6328"
         id="use229" />
      <use
         xlink:href="#DejaVuSans-20"
         x="1130.4199"
         id="use230" />
      <use
         xlink:href="#DejaVuSans-73"
         x="1162.207"
         id="use231" />
      <use
         xlink:href="#DejaVuSans-65"
         x="1214.3066"
         id="use232" />
      <use
         xlink:href="#DejaVuSans-72"
         x="1275.8301"
         id="use233" />
      <use
         xlink:href="#DejaVuSans-20"
         x="1316.9434"
         id="use234" />
      <use
         xlink:href="#DejaVuSans-64"
         x="1348.7305"
         id="use235" />
      <use
         xlink:href="#DejaVuSans-65"
         x="1412.207"
         id="use236" />
      <use
         xlink:href="#DejaVuSans-6c"
         x="1473.7305"
         id="use237" />
      <use
         xlink:href="#DejaVuSans-76"
         x="1501.5137"
         id="use238" />
      <use
         xlink:href="#DejaVuSans-69"
         x="1560.6934"
         id="use239" />
      <use
         xlink:href="#DejaVuSans-73"
         x="1588.4766"
         id="use240" />
      <use
         xlink:href="#DejaVuSans-61"
         x="1640.5762"
         id="use241" />
      <use
         xlink:href="#DejaVuSans-20"
         x="1701.8555"
         id="use242" />
      <use
         xlink:href="#DejaVuSans-73"
         x="1733.6426"
         id="use243" />
      <use
         xlink:href="#DejaVuSans-61"
         x="1785.7422"
         id="use244" />
      <use
         xlink:href="#DejaVuSans-6e"
         x="1847.0215"
         id="use245" />
      <use
         xlink:href="#DejaVuSans-6e"
         x="1910.4004"
         id="use246" />
      <use
         xlink:href="#DejaVuSans-69"
         x="1973.7793"
         id="use247" />
      <use
         xlink:href="#DejaVuSans-6e"
         x="2001.5625"
         id="use248" />
      <use
         xlink:href="#DejaVuSans-67"
         x="2064.9414"
         id="use249" />
      <use
         xlink:href="#DejaVuSans-61"
         x="2128.418"
         id="use250" />
      <use
         xlink:href="#DejaVuSans-72"
         x="2189.6973"
         id="use251" />
    </g>
  </g>
  <defs
     id="defs251">
    <clipPath
       id="p3defbe3a60">
      <rect
         x="41.899376"
         y="7.1999998"
         width="558"
         height="221.75999"
         id="rect251" />
    </clipPath>
  </defs>
</svg>
